<svg width="150" height="51" viewBox="0 0 150 51" fill="none" xmlns="http://www.w3.org/2000/svg">
<path d="M42.9977 9.30005L42.5777 15.9075H46.0652L39.1577 27.6975H48.1202L53.2352 17.28L55.1177 27.6975H64.0802L60.3902 15.9075H64.8452L65.3552 9.30005H42.9977Z" fill="white"/>
<path d="M73.3427 15.9075H80.0777L80.4152 9.30005H67.4552L66.3452 27.6975H72.6452L73.3427 15.9075Z" fill="white"/>
<path d="M63.0373 29.73C61.5121 29.7285 60.0207 30.1794 58.7518 31.0257C57.4829 31.872 56.4936 33.0756 55.9089 34.4843C55.3242 35.893 55.1704 37.4434 55.4671 38.9395C55.7637 40.4356 56.4974 41.8101 57.5754 42.8891C58.6533 43.9681 60.0271 44.7032 61.5229 45.0013C63.0187 45.2994 64.5693 45.1471 65.9786 44.5638C67.3878 43.9805 68.5924 42.9923 69.4399 41.7242C70.2874 40.4561 70.7398 38.9652 70.7398 37.44C70.7408 36.4278 70.5423 35.4254 70.1557 34.4901C69.769 33.5547 69.2018 32.7047 68.4865 31.9886C67.7711 31.2726 66.9217 30.7046 65.9867 30.317C65.0517 29.9295 64.0495 29.73 63.0373 29.73ZM63.0373 39.48C62.6317 39.4815 62.2348 39.3625 61.897 39.138C61.5591 38.9136 61.2955 38.5939 61.1396 38.2195C60.9837 37.8451 60.9426 37.4328 61.0213 37.0349C61.1001 36.637 61.2952 36.2715 61.582 35.9847C61.8688 35.6979 62.2344 35.5027 62.6322 35.424C63.0301 35.3452 63.4424 35.3864 63.8168 35.5423C64.1913 35.6982 64.511 35.9618 64.7354 36.2996C64.9598 36.6375 65.0788 37.0344 65.0773 37.44C65.0773 37.981 64.8624 38.4999 64.4798 38.8825C64.0972 39.2651 63.5784 39.48 63.0373 39.48Z" fill="white"/>
<path d="M101.557 29.9025C100.034 29.904 98.5458 30.357 97.2801 31.2042C96.0144 32.0515 95.0283 33.255 94.4465 34.6625C93.8646 36.0701 93.7132 37.6186 94.0112 39.1122C94.3093 40.6059 95.0435 41.9776 96.121 43.0541C97.1985 44.1306 98.571 44.8634 100.065 45.16C101.559 45.4566 103.107 45.3036 104.514 44.7204C105.921 44.1372 107.124 43.15 107.97 41.8835C108.816 40.617 109.267 39.1281 109.267 37.605C109.267 36.5928 109.068 35.5906 108.68 34.6556C108.293 33.7206 107.725 32.8712 107.009 32.1558C106.293 31.4405 105.443 30.8733 104.507 30.4866C103.572 30.1 102.569 29.9015 101.557 29.9025ZM101.557 39.6525C101.154 39.651 100.76 39.5301 100.426 39.305C100.092 39.08 99.8312 38.7609 99.678 38.388C99.5247 38.0151 99.4854 37.6051 99.5649 37.2099C99.6445 36.8147 99.8394 36.4519 100.125 36.1673C100.411 35.8828 100.774 35.6892 101.17 35.6111C101.565 35.533 101.975 35.5739 102.347 35.7285C102.72 35.8831 103.038 36.1446 103.262 36.4799C103.485 36.8152 103.605 37.2093 103.605 37.6125C103.604 37.8804 103.55 38.1454 103.447 38.3926C103.343 38.6397 103.192 38.864 103.002 39.0528C102.812 39.2415 102.586 39.391 102.339 39.4926C102.091 39.5942 101.825 39.646 101.557 39.645V39.6525Z" fill="white"/>
<path d="M107.67 9.46497L106.567 27.87H112.972L113.527 16.0725L120.292 16.1175L120.637 9.46497H107.67Z" fill="white"/>
<path d="M105.578 9.465H97.5226V5.6925H90.9076L90.9001 9.465H83.2126L82.8001 16.08H86.2876L79.3726 27.87H88.3351L93.4576 17.445L95.3326 27.87H104.295L100.59 16.08H105.188L105.578 9.465Z" fill="white"/>
<path d="M137.88 27.87H144.398L145.5 9.4425H123.495L123.06 16.2075L138.563 16.3425L137.88 27.87Z" fill="white"/>
<path d="M134.498 36.6824H133.11L133.56 25.6949H126.465L125.985 36.6824H116.265L115.928 43.1249H125.415H134.498H143.708L144.06 36.6824H134.498Z" fill="white"/>
<path d="M24.8175 9.30005H18.63L18.3075 14.6775H11.5575L11.88 9.30005H5.7075L4.5 29.415H23.625L24.8175 9.30005ZM17.9325 20.8725L17.7975 23.25H11.0475L11.1975 20.9025L17.9325 20.8725Z" fill="white"/>
<path d="M27.5477 9.30005L26.3477 29.415H32.5427L33.3452 15.9075H39.9752L40.3127 9.30005H27.5477Z" fill="white"/>
<path d="M23.5201 32.1H17.1076L16.3276 45.1125H37.9876L38.3926 38.775H23.1226L23.5201 32.1Z" fill="white"/>
</svg>
