<svg width="95" height="32" viewBox="0 0 95 32" fill="none" xmlns="http://www.w3.org/2000/svg">
<path d="M26.9787 5.83533L26.7152 9.98121H28.9035L24.5693 17.3789H30.1929L33.4023 10.8424L34.5835 17.3789H40.207L37.8917 9.98121H40.687L41.007 5.83533H26.9787Z" fill="white"/>
<path d="M46.019 9.98121H50.2449L50.4567 5.83533H42.3249L41.6284 17.3789H45.5814L46.019 9.98121Z" fill="white"/>
<path d="M39.5528 18.6542C38.5958 18.6532 37.66 18.9362 36.8639 19.4672C36.0677 19.9982 35.4469 20.7534 35.08 21.6373C34.7132 22.5212 34.6167 23.494 34.8028 24.4327C34.989 25.3714 35.4493 26.2339 36.1257 26.9109C36.8021 27.5879 37.664 28.0491 38.6026 28.2362C39.5411 28.4232 40.5141 28.3277 41.3983 27.9617C42.2825 27.5957 43.0383 26.9756 43.5701 26.18C44.1019 25.3843 44.3857 24.4488 44.3857 23.4918C44.3864 22.8568 44.2618 22.2278 44.0192 21.6409C43.7766 21.054 43.4207 20.5207 42.9719 20.0714C42.523 19.6221 41.99 19.2657 41.4034 19.0225C40.8167 18.7793 40.1879 18.6542 39.5528 18.6542ZM39.5528 24.7718C39.2983 24.7728 39.0493 24.6981 38.8373 24.5573C38.6253 24.4165 38.4599 24.2159 38.3621 23.9809C38.2643 23.746 38.2384 23.4873 38.2879 23.2376C38.3373 22.988 38.4597 22.7587 38.6397 22.5787C38.8196 22.3988 39.049 22.2763 39.2986 22.2269C39.5483 22.1775 39.807 22.2033 40.0419 22.3011C40.2769 22.3989 40.4774 22.5643 40.6183 22.7763C40.7591 22.9883 40.8337 23.2373 40.8328 23.4918C40.8328 23.8313 40.6979 24.1569 40.4579 24.3969C40.2179 24.637 39.8923 24.7718 39.5528 24.7718Z" fill="white"/>
<path d="M63.7223 18.7623C62.7666 18.7633 61.8327 19.0475 61.0385 19.5791C60.2444 20.1107 59.6257 20.8659 59.2606 21.749C58.8955 22.6322 58.8005 23.6038 58.9875 24.541C59.1745 25.4782 59.6352 26.3389 60.3112 27.0143C60.9873 27.6898 61.8485 28.1496 62.7859 28.3357C63.7232 28.5218 64.6947 28.4258 65.5776 28.0599C66.4604 27.6939 67.2149 27.0745 67.7458 26.2798C68.2766 25.4852 68.5599 24.5509 68.5599 23.5953C68.5599 22.9602 68.4348 22.3314 68.1916 21.7447C67.9484 21.158 67.592 20.625 67.1427 20.1762C66.6934 19.7274 66.1601 19.3715 65.5732 19.1289C64.9863 18.8863 64.3573 18.7617 63.7223 18.7623ZM63.7223 24.88C63.4693 24.879 63.2223 24.8032 63.0124 24.662C62.8026 24.5208 62.6392 24.3205 62.5431 24.0866C62.4469 23.8526 62.4222 23.5954 62.4722 23.3474C62.5221 23.0994 62.6444 22.8718 62.8235 22.6932C63.0027 22.5147 63.2308 22.3932 63.479 22.3442C63.7272 22.2952 63.9843 22.3209 64.2179 22.4179C64.4515 22.5149 64.6511 22.6789 64.7916 22.8893C64.932 23.0997 65.007 23.347 65.007 23.6C65.0064 23.7681 64.9726 23.9344 64.9077 24.0895C64.8429 24.2445 64.748 24.3853 64.6288 24.5037C64.5095 24.6221 64.368 24.7159 64.2125 24.7796C64.0569 24.8434 63.8904 24.8759 63.7223 24.8753V24.88Z" fill="white"/>
<path d="M67.5575 5.93884L66.8657 17.4871H70.8846L71.2328 10.0847L75.4775 10.113L75.694 5.93884H67.5575Z" fill="white"/>
<path d="M66.2446 5.93884H61.1905V3.57178H57.0399L57.0352 5.93884H52.2117L51.9528 10.0894H54.1411L49.8022 17.4871H55.4258L58.6399 10.9459L59.8164 17.4871H65.4399L63.1152 10.0894H65.9999L66.2446 5.93884Z" fill="white"/>
<path d="M86.5132 17.487H90.6026L91.2943 5.92468H77.4873L77.2144 10.1694L86.9414 10.2541L86.5132 17.487Z" fill="white"/>
<path d="M84.3905 23.0164H83.5199L83.8023 16.1223H79.3505L79.0494 23.0164H72.9505L72.7388 27.0588H78.6917H84.3905H90.1694L90.3905 23.0164H84.3905Z" fill="white"/>
<path d="M15.572 5.83533H11.6896L11.4873 9.20944H7.25197L7.45432 5.83533H3.58138L2.82373 18.4565H14.8237L15.572 5.83533ZM11.252 13.0965L11.1673 14.5883H6.93197L7.02608 13.1153L11.252 13.0965Z" fill="white"/>
<path d="M17.2847 5.83533L16.5317 18.4565H20.4188L20.9223 9.98121H25.0823L25.2941 5.83533H17.2847Z" fill="white"/>
<path d="M14.7576 20.1412H10.734L10.2446 28.3059H23.8352L24.0893 24.3295H14.5082L14.7576 20.1412Z" fill="white"/>
</svg>
